<?xml version="1.0" encoding="utf-8"?>
<svg version="1.1" xmlns:xlink="http://www.w3.org/1999/xlink" width="20px" height="20px" viewBox="38 193  20 20" xmlns="http://www.w3.org/2000/svg">
  <path d="M 38.5 198  A 4.5 4.5 0 0 1 43 193.5 L 53 193.5  A 4.5 4.5 0 0 1 57.5 198 L 57.5 208  A 4.5 4.5 0 0 1 53 212.5 L 43 212.5  A 4.5 4.5 0 0 1 38.5 208 L 38.5 198  Z " fill-rule="nonzero" fill="#f0f0f0" stroke="none" />
  <path d="M 38.5 198  A 4.5 4.5 0 0 1 43 193.5 L 53 193.5  A 4.5 4.5 0 0 1 57.5 198 L 57.5 208  A 4.5 4.5 0 0 1 53 212.5 L 43 212.5  A 4.5 4.5 0 0 1 38.5 208 L 38.5 198  Z " stroke-width="1" stroke="#535365" fill="none" />
</svg>