<?xml version="1.0" encoding="utf-8"?>
<svg version="1.1" xmlns:xlink="http://www.w3.org/1999/xlink" width="20px" height="20px" viewBox="608 69  20 20" xmlns="http://www.w3.org/2000/svg">
  <path d="M 608.5 74  A 4.5 4.5 0 0 1 613 69.5 L 623 69.5  A 4.5 4.5 0 0 1 627.5 74 L 627.5 84  A 4.5 4.5 0 0 1 623 88.5 L 613 88.5  A 4.5 4.5 0 0 1 608.5 84 L 608.5 74  Z " fill-rule="nonzero" fill="#ffffff" stroke="none" />
  <path d="M 608.5 74  A 4.5 4.5 0 0 1 613 69.5 L 623 69.5  A 4.5 4.5 0 0 1 627.5 74 L 627.5 84  A 4.5 4.5 0 0 1 623 88.5 L 613 88.5  A 4.5 4.5 0 0 1 608.5 84 L 608.5 74  Z " stroke-width="1" stroke="#535365" fill="none" />
  <path d="M 612.2857142857143 79  L 616.5714285714286 83.28571428571428  L 623.7142857142857 73.28571428571429  " stroke-width="4.285714285714286" stroke="#535365" fill="none" />
</svg>