<?xml version="1.0" encoding="utf-8"?>
<svg version="1.1" xmlns:xlink="http://www.w3.org/1999/xlink" width="22px" height="22px" viewBox="50 132  22 22" xmlns="http://www.w3.org/2000/svg">
  <path d="M 50.5 137  A 4.5 4.5 0 0 1 55 132.5 L 67 132.5  A 4.5 4.5 0 0 1 71.5 137 L 71.5 149  A 4.5 4.5 0 0 1 67 153.5 L 55 153.5  A 4.5 4.5 0 0 1 50.5 149 L 50.5 137  Z " fill-rule="nonzero" fill="#ffffff" stroke="none" />
  <path d="M 50.5 137  A 4.5 4.5 0 0 1 55 132.5 L 67 132.5  A 4.5 4.5 0 0 1 71.5 137 L 71.5 149  A 4.5 4.5 0 0 1 67 153.5 L 55 153.5  A 4.5 4.5 0 0 1 50.5 149 L 50.5 137  Z " stroke-width="1" stroke="#535365" fill="none" />
  <path d="M 54.714285714285715 143  L 59.42857142857143 147.7142857142857  L 67.28571428571429 136.71428571428572  " stroke-width="4.714285714285714" stroke="#535365" fill="none" />
</svg>