<?xml version="1.0" encoding="utf-8"?>
<svg version="1.1" xmlns:xlink="http://www.w3.org/1999/xlink" width="22px" height="22px" viewBox="50 90  22 22" xmlns="http://www.w3.org/2000/svg">
  <path d="M 50.5 95  A 4.5 4.5 0 0 1 55 90.5 L 67 90.5  A 4.5 4.5 0 0 1 71.5 95 L 71.5 107  A 4.5 4.5 0 0 1 67 111.5 L 55 111.5  A 4.5 4.5 0 0 1 50.5 107 L 50.5 95  Z " fill-rule="nonzero" fill="#ffffff" stroke="none" />
  <path d="M 50.5 95  A 4.5 4.5 0 0 1 55 90.5 L 67 90.5  A 4.5 4.5 0 0 1 71.5 95 L 71.5 107  A 4.5 4.5 0 0 1 67 111.5 L 55 111.5  A 4.5 4.5 0 0 1 50.5 107 L 50.5 95  Z " stroke-width="1" stroke="#535365" fill="none" />
  <path d="M 54.714285714285715 101  L 59.42857142857143 105.71428571428572  L 67.28571428571429 94.71428571428571  " stroke-width="4.714285714285714" stroke="#535365" fill="none" />
</svg>