<?xml version="1.0" encoding="utf-8"?>
<svg version="1.1" xmlns:xlink="http://www.w3.org/1999/xlink" width="542px" height="52px" viewBox="35 85  542 52" xmlns="http://www.w3.org/2000/svg">
  <path d="M 36.5 89  A 2.5 2.5 0 0 1 39 86.5 L 573 86.5  A 2.5 2.5 0 0 1 575.5 89 L 575.5 133  A 2.5 2.5 0 0 1 573 135.5 L 39 135.5  A 2.5 2.5 0 0 1 36.5 133 L 36.5 89  Z " fill-rule="nonzero" fill="#ffffff" stroke="none" fill-opacity="0" />
  <path d="M 36 89  A 3 3 0 0 1 39 86 L 573 86  A 3 3 0 0 1 576 89 L 576 133  A 3 3 0 0 1 573 136 L 39 136  A 3 3 0 0 1 36 133 L 36 89  Z " stroke-width="2" stroke="#2f2d51" fill="none" />
</svg>