<?xml version="1.0" encoding="utf-8"?>
<svg version="1.1" xmlns:xlink="http://www.w3.org/1999/xlink" width="14px" height="25px" xmlns="http://www.w3.org/2000/svg">
  <g transform="matrix(1 0 0 1 -531 -31 )">
    <path d="M 14 12.5  C 14 12.768817204301076  13.914414414414415 13.001447477253928  13.743243243243242 13.19789081885856  L 3.7162162162162167 24.70533498759305  C 3.5450450450450455 24.901778329197686  3.342342342342343 25  3.108108108108108 25  C 2.8738738738738743 25  2.6711711711711716 24.901778329197686  2.5 24.70533498759305  L 0.2567567567567568 22.13089330024814  C 0.08558558558558571 21.934449958643505  0 21.70181968569065  0 21.43300248138958  C 0 21.164185277088503  0.08558558558558571 20.93155500413565  0.2567567567567568 20.73511166253102  L 7.432432432432433 12.5  L 0.2567567567567568 4.264888337468983  C 0.08558558558558571 4.068444995864348  0 3.835814722911496  0 3.566997518610421  C 0 3.298180314309343  0.08558558558558571 3.0655500413564907  0.2567567567567568 2.8691066997518613  L 2.5 0.2946650124069472  C 2.6711711711711716 0.09822167080231481  2.8738738738738743 0  3.108108108108108 0  C 3.342342342342343 0  3.5450450450450455 0.09822167080231481  3.7162162162162167 0.2946650124069472  L 13.743243243243242 11.80210918114144  C 13.914414414414415 11.99855252274607  14 12.231182795698924  14 12.5  Z " fill-rule="nonzero" fill="#e5e4f8" stroke="none" transform="matrix(1 0 0 1 531 31 )" />
  </g>
</svg>