<?xml version="1.0" encoding="utf-8"?>
<svg version="1.1" xmlns:xlink="http://www.w3.org/1999/xlink" width="14px" height="25px" xmlns="http://www.w3.org/2000/svg">
  <g transform="matrix(1 0 0 1 -320 -31 )">
    <path d="M 14 3.566997518610421  C 14 3.835814722911496  13.914414414414415 4.068444995864348  13.743243243243242 4.264888337468983  L 6.5675675675675675 12.5  L 13.743243243243242 20.73511166253102  C 13.914414414414415 20.93155500413565  14 21.164185277088503  14 21.43300248138958  C 14 21.70181968569065  13.914414414414415 21.934449958643505  13.743243243243242 22.13089330024814  L 11.5 24.70533498759305  C 11.32882882882883 24.901778329197686  11.126126126126126 25  10.891891891891891 25  C 10.657657657657658 25  10.454954954954957 24.901778329197686  10.283783783783784 24.70533498759305  L 0.2567567567567568 13.19789081885856  C 0.08558558558558571 13.001447477253928  0 12.768817204301076  0 12.5  C 0 12.231182795698924  0.08558558558558571 11.99855252274607  0.2567567567567568 11.80210918114144  L 10.283783783783784 0.2946650124069472  C 10.454954954954957 0.09822167080231481  10.657657657657658 0  10.891891891891891 0  C 11.126126126126126 0  11.32882882882883 0.09822167080231481  11.5 0.2946650124069472  L 13.743243243243242 2.8691066997518613  C 13.914414414414415 3.0655500413564907  14 3.298180314309343  14 3.566997518610421  Z " fill-rule="nonzero" fill="#e5e4f8" stroke="none" transform="matrix(1 0 0 1 320 31 )" />
  </g>
</svg>