<?xml version="1.0" encoding="utf-8"?>
<svg version="1.1" xmlns:xlink="http://www.w3.org/1999/xlink" width="20px" height="30px" xmlns="http://www.w3.org/2000/svg">
  <g transform="matrix(1 0 0 1 -753 -40 )">
    <path d="M 20 15  C 20 15.32258064516129  19.877734877734877 15.601736972704712  19.633204633204635 15.837468982630272  L 5.308880308880309 29.646401985111662  C 5.064350064350065 29.882133995037222  4.774774774774776 30  4.440154440154441 30  C 4.105534105534106 30  3.8159588159588163 29.882133995037222  3.5714285714285716 29.646401985111662  L 0.36679536679536684 26.557071960297765  C 0.12226512226512246 26.32133995037221  0 26.04218362282878  0 25.719602977667495  C 0 25.397022332506204  0.12226512226512246 25.117866004962778  0.36679536679536684 24.88213399503722  L 10.617760617760618 15  L 0.36679536679536684 5.11786600496278  C 0.12226512226512246 4.882133995037218  0 4.6029776674937946  0 4.2803970223325045  C 0 3.957816377171212  0.12226512226512246 3.678660049627789  0.36679536679536684 3.4429280397022333  L 3.5714285714285716 0.35359801488833664  C 3.8159588159588163 0.11786600496277777  4.105534105534106 0  4.440154440154441 0  C 4.774774774774776 0  5.064350064350065 0.11786600496277777  5.308880308880309 0.35359801488833664  L 19.633204633204635 14.162531017369728  C 19.877734877734877 14.398263027295284  20 14.67741935483871  20 15  Z " fill-rule="nonzero" fill="#e5e4f8" stroke="none" transform="matrix(1 0 0 1 753 40 )" />
  </g>
</svg>