<?xml version="1.0" encoding="utf-8"?>
<svg version="1.1" xmlns:xlink="http://www.w3.org/1999/xlink" width="20px" height="30px" xmlns="http://www.w3.org/2000/svg">
  <g transform="matrix(1 0 0 1 -477 -40 )">
    <path d="M 20 4.2803970223325045  C 20 4.6029776674937946  19.877734877734877 4.882133995037218  19.633204633204635 5.11786600496278  L 9.382239382239382 15  L 19.633204633204635 24.88213399503722  C 19.877734877734877 25.117866004962778  20 25.397022332506204  20 25.719602977667495  C 20 26.04218362282878  19.877734877734877 26.32133995037221  19.633204633204635 26.557071960297765  L 16.428571428571427 29.646401985111662  C 16.184041184041185 29.882133995037222  15.894465894465895 30  15.55984555984556 30  C 15.225225225225227 30  14.935649935649938 29.882133995037222  14.691119691119692 29.646401985111662  L 0.36679536679536684 15.837468982630272  C 0.12226512226512246 15.601736972704712  0 15.32258064516129  0 15  C 0 14.67741935483871  0.12226512226512246 14.398263027295284  0.36679536679536684 14.162531017369728  L 14.691119691119692 0.35359801488833664  C 14.935649935649938 0.11786600496277777  15.225225225225227 0  15.55984555984556 0  C 15.894465894465895 0  16.184041184041185 0.11786600496277777  16.428571428571427 0.35359801488833664  L 19.633204633204635 3.4429280397022333  C 19.877734877734877 3.678660049627789  20 3.957816377171212  20 4.2803970223325045  Z " fill-rule="nonzero" fill="#e5e4f8" stroke="none" transform="matrix(1 0 0 1 477 40 )" />
  </g>
</svg>