<?xml version="1.0" encoding="utf-8"?>
<svg version="1.1" xmlns:xlink="http://www.w3.org/1999/xlink" width="22px" height="22px" viewBox="50 175  22 22" xmlns="http://www.w3.org/2000/svg">
  <path d="M 50.5 180  A 4.5 4.5 0 0 1 55 175.5 L 67 175.5  A 4.5 4.5 0 0 1 71.5 180 L 71.5 192  A 4.5 4.5 0 0 1 67 196.5 L 55 196.5  A 4.5 4.5 0 0 1 50.5 192 L 50.5 180  Z " fill-rule="nonzero" fill="#f0f0f0" stroke="none" />
  <path d="M 50.5 180  A 4.5 4.5 0 0 1 55 175.5 L 67 175.5  A 4.5 4.5 0 0 1 71.5 180 L 71.5 192  A 4.5 4.5 0 0 1 67 196.5 L 55 196.5  A 4.5 4.5 0 0 1 50.5 192 L 50.5 180  Z " stroke-width="1" stroke="#535365" fill="none" />
  <path d="M 54.714285714285715 186  L 59.42857142857143 190.7142857142857  L 67.28571428571429 179.71428571428572  " stroke-width="4.714285714285714" stroke="#535365" fill="none" />
</svg>